<?xml version="1.0" encoding="utf-8"?>
<!-- Generator: Adobe Illustrator 27.5.0, SVG Export Plug-In . SVG Version: 6.00 Build 0)  -->
<svg version="1.1" id="Layer_1" xmlns="http://www.w3.org/2000/svg" xmlns:xlink="http://www.w3.org/1999/xlink" x="0px" y="0px"
	 viewBox="0 0 711 163" style="enable-background:new 0 0 711 163;" xml:space="preserve">
<style type="text/css">
	.st0{fill:#AE0F0A;}
	.st1{fill:#929292;}
</style>
<g id="Page-1">
	<g id="peoplePlus" transform="translate(0.400000, 0.900000)">
		<path id="Shape" class="st0" d="M63,12c28.1,0,51,22.9,51,51s-22.9,51-51,51S12,91.1,12,63S34.9,12,63,12 M63,0
			C28.2,0,0,28.2,0,63s28.2,63,63,63s63-28.2,63-63S97.8,0,63,0L63,0z"/>
		<polygon id="Path" class="st1" points="41.2,97.7 41.2,78.5 21.9,78.5 21.9,66.5 41.2,66.5 41.2,47.3 53.6,47.3 53.6,66.5 
			73.3,66.5 73.3,78.5 53.6,78.5 53.6,97.7 		"/>
		<path id="Path_00000036244468261523249840000013306850955068144274_" class="st0" d="M78.7,66.1L79,66c6.5-1.4,10.3-5.8,10.3-11.7
			v-0.2c0-7.7-5.4-12.2-14.8-12.2H41.1V29.8h34.5c16.5,0,27.2,9.4,27.2,24V54c0,13.3-9.1,22.6-23.6,24.2l-0.5,0.1V66.1z"/>
		<g id="Group_00000109006275115993710370000000552453953361170838_" transform="translate(156.300000, 23.300000)">
			<path id="Shape_00000155125302056464896050000013995695225240617135_" class="st0" d="M0.1,3.2h31c18.1,0,29,10.7,29,26.2v0.2
				c0,17.5-13.6,26.6-30.7,26.6H16.7v22.7H0V3.2H0.1z M30,41.4c8.3,0,13.2-5,13.2-11.5v-0.2c0-7.5-5.2-11.5-13.5-11.5H16.8v23.2H30z
				"/>
			<path id="Shape_00000078728537657023955610000009019215052791590570_" class="st0" d="M62.7,50.3v-0.2
				c0-16.6,11.8-30.2,28.7-30.2c19.4,0,28.3,15.1,28.3,31.5c0,1.3-0.1,2.8-0.2,4.3H79.1c1.6,7.5,6.8,11.4,14.2,11.4
				c5.5,0,9.5-1.7,14.1-6l9.4,8.3c-5.4,6.7-13.2,10.8-23.7,10.8C75.6,80.3,62.7,68.1,62.7,50.3z M103.6,45.4
				c-1-7.4-5.3-12.3-12.2-12.3c-6.8,0-11.3,4.9-12.6,12.3H103.6z"/>
			<path id="Shape_00000009554397037179150510000002891045398641362099_" class="st0" d="M124.4,50.3v-0.2
				c0-16.7,13.4-30.2,31.5-30.2c18,0,31.3,13.3,31.3,30v0.2c0,16.7-13.4,30.2-31.5,30.2C137.7,80.3,124.4,67,124.4,50.3z M171,50.3
				v-0.2c0-8.6-6.2-16-15.3-16c-9.4,0-15.1,7.3-15.1,15.8v0.2c0,8.6,6.2,16,15.3,16C165.3,66.1,171,58.9,171,50.3z"/>
			<path id="Shape_00000023985575846804456200000017883360457546409344_" class="st0" d="M194.5,21H211v8.3c4-5.4,9.5-9.4,18.1-9.4
				c13.5,0,26.4,10.6,26.4,30v0.2c0,19.4-12.7,30-26.4,30c-8.8,0-14.2-4-18.1-8.7v24.9h-16.5V21z M239,50.1v-0.2
				c0-9.6-6.5-16-14.2-16s-14.1,6.4-14.1,16v0.2c0,9.6,6.4,16,14.1,16S239,59.9,239,50.1z"/>
			<polygon id="Path_00000060025845904371522630000007796216788899641791_" class="st0" points="263.7,0 280.2,0 280.2,79.1 
				263.7,79.1 			"/>
			<path id="Shape_00000055669597437067567540000006709503188761562516_" class="st0" d="M288.1,50.3v-0.2
				c0-16.6,11.8-30.2,28.7-30.2c19.4,0,28.3,15.1,28.3,31.5c0,1.3-0.1,2.8-0.2,4.3h-40.4c1.6,7.5,6.8,11.4,14.2,11.4
				c5.5,0,9.5-1.7,14.1-6l9.4,8.3c-5.4,6.7-13.2,10.8-23.7,10.8C301,80.3,288.1,68.1,288.1,50.3z M329.1,45.4
				c-1-7.4-5.3-12.3-12.2-12.3c-6.8,0-11.3,4.9-12.6,12.3H329.1z"/>
			<path id="Shape_00000161633019575465599330000011457578466606487947_" class="st0" d="M354.4,3.2h31c18.1,0,29,10.7,29,26.2v0.2
				c0,17.5-13.6,26.6-30.7,26.6H371v22.7h-16.7V3.2H354.4z M384.3,41.4c8.3,0,13.2-5,13.2-11.5v-0.2c0-7.5-5.2-11.5-13.5-11.5h-12.9
				v23.2H384.3z"/>
			<polygon id="Path_00000066501492920725650030000006801462695790819760_" class="st0" points="421.1,0 437.6,0 437.6,79.1 
				421.1,79.1 			"/>
			<path id="Path_00000015352887628132289680000013884270522483186352_" class="st0" d="M448,58.6V21h16.5v32.4
				c0,7.8,3.7,11.8,10,11.8s10.3-4,10.3-11.8V21h16.5v58.1h-16.5v-8.3c-3.8,4.9-8.7,9.3-17,9.3C455.3,80.1,448,71.9,448,58.6z"/>
			<path id="Path_00000010305757676129582120000017042706470572625556_" class="st0" d="M506.7,71.3l7-10.8
				c6.3,4.5,12.9,6.9,18.3,6.9c4.8,0,6.9-1.7,6.9-4.3v-0.2c0-3.6-5.6-4.8-12-6.7c-8.1-2.4-17.3-6.2-17.3-17.4v-0.2
				c0-11.8,9.5-18.4,21.2-18.4c7.4,0,15.4,2.5,21.7,6.7l-6.3,11.4c-5.7-3.4-11.5-5.4-15.7-5.4c-4,0-6.1,1.7-6.1,4v0.2
				c0,3.2,5.5,4.8,11.8,6.9c8.1,2.7,17.5,6.6,17.5,17.2v0.2c0,12.9-9.6,18.7-22.2,18.7C523.5,80.1,514.4,77.4,506.7,71.3z"/>
		</g>
	</g>
</g>
</svg>
